  <svg width="60px" height="60px" viewBox="0 0 24 24" version="1.1" xmlns="http://www.w3.org/2000/svg" >

      <g id="页面-1" stroke="none" stroke-width="1" fill="none" fill-rule="evenodd">
        <g id="画板" transform="translate(-13.000000, -8.000000)">
          <g id="深" transform="translate(13.000000, 8.000000)">
            <rect id="矩形" x="0" y="0" width="24" height="24"></rect>
            <path d="M12.4526241,0.5 C18.612135,0.77372125 23.4729306,5.83304065 23.5,11.9985711 C23.5,18.1633706 18.5944034,23.2093902 12.4503221,23.4902361 L12.4503221,16.7821608 L12.4510281,16.6417711 C12.4570363,16.1652365 12.5097908,16.0873356 12.9107253,15.6864011 L15.6109904,12.9861361 C16.4489243,12.1459001 16.4489243,11.8328259 15.6109904,10.994892 L12.9107253,8.29462697 C12.4710402,7.85724389 12.4503221,7.8019955 12.4503221,7.19886724 L12.4503221,5.35725426 C12.8614611,5.45486509 13.2375408,5.66441797 13.5368737,5.96268453 L17.9452348,10.3710456 C18.8393075,11.2691862 18.8393075,12.72105 17.9452348,13.6191905 L14.4922105,17.0722149 L14.4922105,20.9096759 C18.8575513,19.6735155 21.6878686,15.4607691 21.1822066,10.9520443 C20.6765446,6.4433195 16.9833453,2.96219785 12.4526241,2.72374768 Z M11.3798845,0.5 L11.3792224,7.34107536 C11.373522,7.81615929 11.322526,7.89599449 10.9194813,8.29692899 L8.22382026,11.0017981 C7.38358434,11.842034 7.38358434,12.1551082 8.22382026,12.9930421 L10.9217833,15.6933072 C11.3637704,16.1306902 11.3821865,16.1836366 11.3821865,16.7890669 L11.3821865,18.6306799 C10.970529,18.5331011 10.5942469,18.3226382 10.2956349,18.0229476 L5.88727379,13.6168885 C4.99320113,12.718748 4.99320113,11.2668842 5.88727379,10.3687436 L9.34029814,6.91571925 L9.34029814,3.07595617 C4.97519244,4.31185904 2.14474604,8.52404452 2.64981144,13.0325379 C3.15487684,17.5410313 6.84720735,21.0225006 11.3775825,21.2618844 L11.3798845,23.4856321 C5.27706677,23.1509904 0.5,18.1048018 0.5,11.9928161 C0.5,5.88083032 5.27706677,0.834641684 11.3798845,0.5 Z M11.9162543,9.07501048 L14.8352109,11.9939671 L11.9162543,14.9106216 L8.99959974,11.9939671 L11.9162543,9.07501048 Z" id="形状结合" fill="#5F7E97" fill-rule="nonzero"></path>
          </g>
        </g>
      </g>
    </svg>